<mxfile host="app.diagrams.net" agent="Mozilla/5.0 (Windows NT 10.0; Win64; x64) AppleWebKit/537.36 (KHTML, like Gecko) Chrome/137.0.0.0 Safari/537.36" version="27.1.6">
  <diagram name="페이지-1" id="vw1Q90or178924WE296y">
    <mxGraphModel dx="-161" dy="356" grid="1" gridSize="10" guides="1" tooltips="1" connect="1" arrows="1" fold="1" page="1" pageScale="1" pageWidth="827" pageHeight="1169" math="0" shadow="0">
      <root>
        <mxCell id="0" />
        <mxCell id="1" parent="0" />
        <mxCell id="4K4WvvSBn-Kl9yCaVSDz-1" value="" style="shape=trapezoid;perimeter=trapezoidPerimeter;whiteSpace=wrap;html=1;fixedSize=1;fillColor=#CCE5FF;strokeColor=#000000;gradientColor=none;" vertex="1" parent="1">
          <mxGeometry x="1030" y="440" width="90" height="50" as="geometry" />
        </mxCell>
        <mxCell id="4K4WvvSBn-Kl9yCaVSDz-2" value="" style="shape=trapezoid;perimeter=trapezoidPerimeter;whiteSpace=wrap;html=1;fixedSize=1;fillColor=#CCFFCC;" vertex="1" parent="1">
          <mxGeometry x="1130" y="440" width="90" height="50" as="geometry" />
        </mxCell>
        <mxCell id="4K4WvvSBn-Kl9yCaVSDz-3" value="" style="shape=trapezoid;perimeter=trapezoidPerimeter;whiteSpace=wrap;html=1;fixedSize=1;fillColor=#FFE6CC;" vertex="1" parent="1">
          <mxGeometry x="1230" y="440" width="90" height="50" as="geometry" />
        </mxCell>
        <mxCell id="4K4WvvSBn-Kl9yCaVSDz-4" value="" style="endArrow=classic;html=1;rounded=0;dashed=1;" edge="1" parent="1">
          <mxGeometry width="50" height="50" relative="1" as="geometry">
            <mxPoint x="1075.02" y="525" as="sourcePoint" />
            <mxPoint x="1074.8899999999999" y="495" as="targetPoint" />
          </mxGeometry>
        </mxCell>
        <mxCell id="4K4WvvSBn-Kl9yCaVSDz-13" value="2D molecular&lt;div&gt;graph&lt;/div&gt;" style="edgeLabel;html=1;align=center;verticalAlign=middle;resizable=0;points=[];" vertex="1" connectable="0" parent="4K4WvvSBn-Kl9yCaVSDz-4">
          <mxGeometry x="-0.3128" y="1" relative="1" as="geometry">
            <mxPoint x="1" y="25" as="offset" />
          </mxGeometry>
        </mxCell>
        <mxCell id="4K4WvvSBn-Kl9yCaVSDz-10" value="" style="endArrow=classic;html=1;rounded=0;dashed=1;" edge="1" parent="1">
          <mxGeometry width="50" height="50" relative="1" as="geometry">
            <mxPoint x="1174.9700000000003" y="525" as="sourcePoint" />
            <mxPoint x="1174.8400000000001" y="495" as="targetPoint" />
          </mxGeometry>
        </mxCell>
        <mxCell id="4K4WvvSBn-Kl9yCaVSDz-14" value="3D molecular&lt;div&gt;graph&lt;/div&gt;" style="edgeLabel;html=1;align=center;verticalAlign=middle;resizable=0;points=[];" vertex="1" connectable="0" parent="4K4WvvSBn-Kl9yCaVSDz-10">
          <mxGeometry x="-0.4422" relative="1" as="geometry">
            <mxPoint y="23" as="offset" />
          </mxGeometry>
        </mxCell>
        <mxCell id="4K4WvvSBn-Kl9yCaVSDz-11" value="" style="endArrow=classic;html=1;rounded=0;dashed=1;" edge="1" parent="1">
          <mxGeometry width="50" height="50" relative="1" as="geometry">
            <mxPoint x="1274.97" y="525" as="sourcePoint" />
            <mxPoint x="1274.84" y="495" as="targetPoint" />
          </mxGeometry>
        </mxCell>
        <mxCell id="4K4WvvSBn-Kl9yCaVSDz-15" value="Physicochemical&lt;div&gt;Descriptors&lt;/div&gt;" style="edgeLabel;html=1;align=center;verticalAlign=middle;resizable=0;points=[];" vertex="1" connectable="0" parent="4K4WvvSBn-Kl9yCaVSDz-11">
          <mxGeometry x="-0.1699" y="1" relative="1" as="geometry">
            <mxPoint x="1" y="25" as="offset" />
          </mxGeometry>
        </mxCell>
        <mxCell id="4K4WvvSBn-Kl9yCaVSDz-22" value="" style="endArrow=classic;html=1;rounded=0;dashed=1;" edge="1" parent="1">
          <mxGeometry width="50" height="50" relative="1" as="geometry">
            <mxPoint x="1074.9" y="440" as="sourcePoint" />
            <mxPoint x="1075" y="410" as="targetPoint" />
          </mxGeometry>
        </mxCell>
        <mxCell id="4K4WvvSBn-Kl9yCaVSDz-26" value="" style="endArrow=classic;html=1;rounded=0;dashed=1;" edge="1" parent="1">
          <mxGeometry width="50" height="50" relative="1" as="geometry">
            <mxPoint x="1174.84" y="440" as="sourcePoint" />
            <mxPoint x="1174.9399999999998" y="410" as="targetPoint" />
          </mxGeometry>
        </mxCell>
        <mxCell id="4K4WvvSBn-Kl9yCaVSDz-27" value="" style="endArrow=classic;html=1;rounded=0;dashed=1;" edge="1" parent="1">
          <mxGeometry width="50" height="50" relative="1" as="geometry">
            <mxPoint x="1274.84" y="440" as="sourcePoint" />
            <mxPoint x="1274.9399999999998" y="410" as="targetPoint" />
          </mxGeometry>
        </mxCell>
        <mxCell id="4K4WvvSBn-Kl9yCaVSDz-39" value="" style="group;strokeColor=default;strokeWidth=0.3;" vertex="1" connectable="0" parent="1">
          <mxGeometry x="1050" y="397" width="50" height="10" as="geometry" />
        </mxCell>
        <mxCell id="4K4WvvSBn-Kl9yCaVSDz-28" value="" style="rounded=0;whiteSpace=wrap;html=1;strokeWidth=0.3;fillColor=#C2DFFF;strokeColor=default;container=0;" vertex="1" parent="4K4WvvSBn-Kl9yCaVSDz-39">
          <mxGeometry x="10" width="10" height="10" as="geometry" />
        </mxCell>
        <mxCell id="4K4WvvSBn-Kl9yCaVSDz-32" value="" style="rounded=0;whiteSpace=wrap;html=1;strokeWidth=0.3;fillColor=#81BDFD;strokeColor=default;container=0;" vertex="1" parent="4K4WvvSBn-Kl9yCaVSDz-39">
          <mxGeometry width="10" height="10" as="geometry" />
        </mxCell>
        <mxCell id="4K4WvvSBn-Kl9yCaVSDz-35" value="" style="rounded=0;whiteSpace=wrap;html=1;strokeWidth=0.3;fillColor=#2990FF;strokeColor=default;container=0;" vertex="1" parent="4K4WvvSBn-Kl9yCaVSDz-39">
          <mxGeometry x="40" width="10" height="10" as="geometry" />
        </mxCell>
        <mxCell id="4K4WvvSBn-Kl9yCaVSDz-37" value="" style="rounded=0;whiteSpace=wrap;html=1;strokeWidth=0.3;fillColor=#81BDFD;strokeColor=default;container=0;" vertex="1" parent="4K4WvvSBn-Kl9yCaVSDz-39">
          <mxGeometry x="30" width="10" height="10" as="geometry" />
        </mxCell>
        <mxCell id="4K4WvvSBn-Kl9yCaVSDz-36" value="" style="rounded=0;whiteSpace=wrap;html=1;strokeWidth=0.3;fillColor=#99CAFF;strokeColor=default;container=0;" vertex="1" parent="4K4WvvSBn-Kl9yCaVSDz-39">
          <mxGeometry x="20" width="10" height="10" as="geometry" />
        </mxCell>
        <mxCell id="4K4WvvSBn-Kl9yCaVSDz-41" value="" style="group;strokeColor=default;strokeWidth=0.3;" vertex="1" connectable="0" parent="1">
          <mxGeometry x="1150" y="397" width="50" height="10" as="geometry" />
        </mxCell>
        <mxCell id="4K4WvvSBn-Kl9yCaVSDz-43" value="" style="rounded=0;whiteSpace=wrap;html=1;strokeWidth=0.3;fillColor=#C2FFC6;strokeColor=default;container=0;" vertex="1" parent="4K4WvvSBn-Kl9yCaVSDz-41">
          <mxGeometry x="20" width="10" height="10" as="geometry" />
        </mxCell>
        <mxCell id="4K4WvvSBn-Kl9yCaVSDz-44" value="" style="rounded=0;whiteSpace=wrap;html=1;strokeWidth=0.3;fillColor=#81FD90;strokeColor=default;container=0;" vertex="1" parent="4K4WvvSBn-Kl9yCaVSDz-41">
          <mxGeometry width="10" height="10" as="geometry" />
        </mxCell>
        <mxCell id="4K4WvvSBn-Kl9yCaVSDz-46" value="" style="rounded=0;whiteSpace=wrap;html=1;strokeWidth=0.3;fillColor=#99FFA0;strokeColor=default;container=0;" vertex="1" parent="4K4WvvSBn-Kl9yCaVSDz-41">
          <mxGeometry x="30" width="10" height="10" as="geometry" />
        </mxCell>
        <mxCell id="4K4WvvSBn-Kl9yCaVSDz-47" value="" style="rounded=0;whiteSpace=wrap;html=1;strokeWidth=0.3;fillColor=#81FD8A;strokeColor=default;container=0;" vertex="1" parent="4K4WvvSBn-Kl9yCaVSDz-41">
          <mxGeometry x="40" width="10" height="10" as="geometry" />
        </mxCell>
        <mxCell id="4K4WvvSBn-Kl9yCaVSDz-45" value="" style="rounded=0;whiteSpace=wrap;html=1;strokeWidth=0.3;fillColor=#2CFF29;strokeColor=default;container=0;fillStyle=solid;" vertex="1" parent="4K4WvvSBn-Kl9yCaVSDz-41">
          <mxGeometry x="10" width="10" height="10" as="geometry" />
        </mxCell>
        <mxCell id="4K4WvvSBn-Kl9yCaVSDz-57" value="" style="group;strokeColor=default;strokeWidth=0.3;" vertex="1" connectable="0" parent="1">
          <mxGeometry x="1250" y="397" width="50" height="10" as="geometry" />
        </mxCell>
        <mxCell id="4K4WvvSBn-Kl9yCaVSDz-58" value="" style="rounded=0;whiteSpace=wrap;html=1;strokeWidth=0.3;fillColor=#FBFFC2;strokeColor=default;container=0;" vertex="1" parent="4K4WvvSBn-Kl9yCaVSDz-57">
          <mxGeometry x="20" width="10" height="10" as="geometry" />
        </mxCell>
        <mxCell id="4K4WvvSBn-Kl9yCaVSDz-59" value="" style="rounded=0;whiteSpace=wrap;html=1;strokeWidth=0.3;fillColor=#FDF381;strokeColor=default;container=0;" vertex="1" parent="4K4WvvSBn-Kl9yCaVSDz-57">
          <mxGeometry width="10" height="10" as="geometry" />
        </mxCell>
        <mxCell id="4K4WvvSBn-Kl9yCaVSDz-60" value="" style="rounded=0;whiteSpace=wrap;html=1;strokeWidth=0.3;fillColor=#FDFF99;strokeColor=default;container=0;" vertex="1" parent="4K4WvvSBn-Kl9yCaVSDz-57">
          <mxGeometry x="40" width="10" height="10" as="geometry" />
        </mxCell>
        <mxCell id="4K4WvvSBn-Kl9yCaVSDz-61" value="" style="rounded=0;whiteSpace=wrap;html=1;strokeWidth=0.3;fillColor=#FBFF00;strokeColor=default;container=0;" vertex="1" parent="4K4WvvSBn-Kl9yCaVSDz-57">
          <mxGeometry x="10" width="10" height="10" as="geometry" />
        </mxCell>
        <mxCell id="4K4WvvSBn-Kl9yCaVSDz-62" value="" style="rounded=0;whiteSpace=wrap;html=1;strokeWidth=0.3;fillColor=#FFF829;strokeColor=default;container=0;fillStyle=solid;" vertex="1" parent="4K4WvvSBn-Kl9yCaVSDz-57">
          <mxGeometry x="30" width="10" height="10" as="geometry" />
        </mxCell>
        <mxCell id="4K4WvvSBn-Kl9yCaVSDz-72" value="" style="group" vertex="1" connectable="0" parent="1">
          <mxGeometry x="1074.79" y="351" width="200.21000000000004" height="42" as="geometry" />
        </mxCell>
        <mxCell id="4K4WvvSBn-Kl9yCaVSDz-67" value="" style="endArrow=none;html=1;rounded=0;dashed=1;startFill=0;" edge="1" parent="4K4WvvSBn-Kl9yCaVSDz-72">
          <mxGeometry width="50" height="50" relative="1" as="geometry">
            <mxPoint y="42" as="sourcePoint" />
            <mxPoint x="0.21000000000003638" y="22" as="targetPoint" />
          </mxGeometry>
        </mxCell>
        <mxCell id="4K4WvvSBn-Kl9yCaVSDz-68" value="" style="endArrow=none;html=1;rounded=0;dashed=1;startFill=0;" edge="1" parent="4K4WvvSBn-Kl9yCaVSDz-72">
          <mxGeometry width="50" height="50" relative="1" as="geometry">
            <mxPoint x="100.06999999999994" y="42" as="sourcePoint" />
            <mxPoint x="100.21000000000004" y="22" as="targetPoint" />
          </mxGeometry>
        </mxCell>
        <mxCell id="4K4WvvSBn-Kl9yCaVSDz-69" value="" style="endArrow=none;html=1;rounded=0;dashed=1;startFill=0;" edge="1" parent="4K4WvvSBn-Kl9yCaVSDz-72">
          <mxGeometry width="50" height="50" relative="1" as="geometry">
            <mxPoint x="200" y="42" as="sourcePoint" />
            <mxPoint x="200.21000000000004" y="22" as="targetPoint" />
          </mxGeometry>
        </mxCell>
        <mxCell id="4K4WvvSBn-Kl9yCaVSDz-70" value="" style="endArrow=none;html=1;rounded=0;dashed=1;startFill=0;" edge="1" parent="4K4WvvSBn-Kl9yCaVSDz-72">
          <mxGeometry width="50" height="50" relative="1" as="geometry">
            <mxPoint x="200.21000000000004" y="20" as="sourcePoint" />
            <mxPoint x="0.21000000000003638" y="20" as="targetPoint" />
          </mxGeometry>
        </mxCell>
        <mxCell id="4K4WvvSBn-Kl9yCaVSDz-71" value="" style="endArrow=classic;html=1;rounded=0;dashed=1;" edge="1" parent="4K4WvvSBn-Kl9yCaVSDz-72">
          <mxGeometry width="50" height="50" relative="1" as="geometry">
            <mxPoint x="100.09999999999991" y="20" as="sourcePoint" />
            <mxPoint x="100.21000000000004" as="targetPoint" />
          </mxGeometry>
        </mxCell>
        <mxCell id="4K4WvvSBn-Kl9yCaVSDz-74" value="" style="group;strokeColor=default;strokeWidth=0.3;" vertex="1" connectable="0" parent="1">
          <mxGeometry x="1150" y="337" width="50" height="10" as="geometry" />
        </mxCell>
        <mxCell id="4K4WvvSBn-Kl9yCaVSDz-77" value="" style="rounded=0;whiteSpace=wrap;html=1;strokeWidth=0.3;fillColor=#81FDC3;strokeColor=default;container=0;" vertex="1" parent="4K4WvvSBn-Kl9yCaVSDz-74">
          <mxGeometry width="10" height="10" as="geometry" />
        </mxCell>
        <mxCell id="4K4WvvSBn-Kl9yCaVSDz-78" value="" style="rounded=0;whiteSpace=wrap;html=1;strokeWidth=0.3;fillColor=#2990FF;strokeColor=default;container=0;" vertex="1" parent="4K4WvvSBn-Kl9yCaVSDz-74">
          <mxGeometry x="40" width="10" height="10" as="geometry" />
        </mxCell>
        <mxCell id="4K4WvvSBn-Kl9yCaVSDz-79" value="" style="rounded=0;whiteSpace=wrap;html=1;strokeWidth=0.3;fillColor=#FF9999;strokeColor=default;container=0;" vertex="1" parent="4K4WvvSBn-Kl9yCaVSDz-74">
          <mxGeometry x="20" width="10" height="10" as="geometry" />
        </mxCell>
        <mxCell id="4K4WvvSBn-Kl9yCaVSDz-81" value="" style="rounded=0;whiteSpace=wrap;html=1;strokeWidth=0.3;fillColor=#2CFF29;strokeColor=default;container=0;fillStyle=solid;" vertex="1" parent="4K4WvvSBn-Kl9yCaVSDz-74">
          <mxGeometry x="10" width="10" height="10" as="geometry" />
        </mxCell>
        <mxCell id="4K4WvvSBn-Kl9yCaVSDz-82" value="" style="rounded=0;whiteSpace=wrap;html=1;strokeWidth=0.3;fillColor=#FFF829;strokeColor=default;container=0;fillStyle=solid;" vertex="1" parent="4K4WvvSBn-Kl9yCaVSDz-74">
          <mxGeometry x="30" width="10" height="10" as="geometry" />
        </mxCell>
        <mxCell id="4K4WvvSBn-Kl9yCaVSDz-90" value="" style="group" vertex="1" connectable="0" parent="1">
          <mxGeometry x="1054.3899999999999" y="420" width="41.210000000000036" height="16" as="geometry" />
        </mxCell>
        <mxCell id="4K4WvvSBn-Kl9yCaVSDz-84" value="" style="ellipse;whiteSpace=wrap;html=1;aspect=fixed;fillColor=none;strokeColor=#FF0000;" vertex="1" parent="4K4WvvSBn-Kl9yCaVSDz-90">
          <mxGeometry x="25.210000000000036" width="16" height="16" as="geometry" />
        </mxCell>
        <mxCell id="4K4WvvSBn-Kl9yCaVSDz-85" value="" style="endArrow=none;html=1;rounded=0;entryX=1;entryY=0;entryDx=0;entryDy=0;exitX=0;exitY=1;exitDx=0;exitDy=0;strokeColor=#FF0000;" edge="1" parent="4K4WvvSBn-Kl9yCaVSDz-90" source="4K4WvvSBn-Kl9yCaVSDz-84" target="4K4WvvSBn-Kl9yCaVSDz-84">
          <mxGeometry width="50" height="50" relative="1" as="geometry">
            <mxPoint x="27.210000000000036" y="160" as="sourcePoint" />
            <mxPoint x="52.210000000000036" y="135" as="targetPoint" />
          </mxGeometry>
        </mxCell>
        <mxCell id="4K4WvvSBn-Kl9yCaVSDz-88" value="" style="endArrow=none;html=1;rounded=0;exitX=0;exitY=1;exitDx=0;exitDy=0;strokeColor=#000000;strokeWidth=0.7;" edge="1" parent="4K4WvvSBn-Kl9yCaVSDz-90">
          <mxGeometry width="50" height="50" relative="1" as="geometry">
            <mxPoint x="17.610000000000035" y="16" as="sourcePoint" />
            <mxPoint x="23.610000000000035" as="targetPoint" />
          </mxGeometry>
        </mxCell>
        <mxCell id="4K4WvvSBn-Kl9yCaVSDz-89" value="" style="ellipse;whiteSpace=wrap;html=1;aspect=fixed;fillColor=none;strokeColor=#00FF00;" vertex="1" parent="4K4WvvSBn-Kl9yCaVSDz-90">
          <mxGeometry width="16" height="16" as="geometry" />
        </mxCell>
        <mxCell id="4K4WvvSBn-Kl9yCaVSDz-92" value="" style="group" vertex="1" connectable="0" parent="1">
          <mxGeometry x="1154.39" y="420" width="41.210000000000036" height="16" as="geometry" />
        </mxCell>
        <mxCell id="4K4WvvSBn-Kl9yCaVSDz-93" value="" style="ellipse;whiteSpace=wrap;html=1;aspect=fixed;fillColor=none;strokeColor=#FF0000;" vertex="1" parent="4K4WvvSBn-Kl9yCaVSDz-92">
          <mxGeometry x="25.210000000000036" width="16" height="16" as="geometry" />
        </mxCell>
        <mxCell id="4K4WvvSBn-Kl9yCaVSDz-94" value="" style="endArrow=none;html=1;rounded=0;entryX=1;entryY=0;entryDx=0;entryDy=0;exitX=0;exitY=1;exitDx=0;exitDy=0;strokeColor=#FF0000;" edge="1" parent="4K4WvvSBn-Kl9yCaVSDz-92" source="4K4WvvSBn-Kl9yCaVSDz-93" target="4K4WvvSBn-Kl9yCaVSDz-93">
          <mxGeometry width="50" height="50" relative="1" as="geometry">
            <mxPoint x="27.210000000000036" y="160" as="sourcePoint" />
            <mxPoint x="52.210000000000036" y="135" as="targetPoint" />
          </mxGeometry>
        </mxCell>
        <mxCell id="4K4WvvSBn-Kl9yCaVSDz-95" value="" style="endArrow=none;html=1;rounded=0;exitX=0;exitY=1;exitDx=0;exitDy=0;strokeColor=#000000;strokeWidth=0.7;" edge="1" parent="4K4WvvSBn-Kl9yCaVSDz-92">
          <mxGeometry width="50" height="50" relative="1" as="geometry">
            <mxPoint x="17.610000000000035" y="16" as="sourcePoint" />
            <mxPoint x="23.610000000000035" as="targetPoint" />
          </mxGeometry>
        </mxCell>
        <mxCell id="4K4WvvSBn-Kl9yCaVSDz-96" value="" style="ellipse;whiteSpace=wrap;html=1;aspect=fixed;fillColor=none;strokeColor=#00FF00;" vertex="1" parent="4K4WvvSBn-Kl9yCaVSDz-92">
          <mxGeometry width="16" height="16" as="geometry" />
        </mxCell>
        <mxCell id="4K4WvvSBn-Kl9yCaVSDz-97" value="" style="group" vertex="1" connectable="0" parent="1">
          <mxGeometry x="1254.4" y="420" width="41.210000000000036" height="16" as="geometry" />
        </mxCell>
        <mxCell id="4K4WvvSBn-Kl9yCaVSDz-98" value="" style="ellipse;whiteSpace=wrap;html=1;aspect=fixed;fillColor=none;strokeColor=#FF0000;" vertex="1" parent="4K4WvvSBn-Kl9yCaVSDz-97">
          <mxGeometry x="25.210000000000036" width="16" height="16" as="geometry" />
        </mxCell>
        <mxCell id="4K4WvvSBn-Kl9yCaVSDz-99" value="" style="endArrow=none;html=1;rounded=0;entryX=1;entryY=0;entryDx=0;entryDy=0;exitX=0;exitY=1;exitDx=0;exitDy=0;strokeColor=#FF0000;" edge="1" parent="4K4WvvSBn-Kl9yCaVSDz-97" source="4K4WvvSBn-Kl9yCaVSDz-98" target="4K4WvvSBn-Kl9yCaVSDz-98">
          <mxGeometry width="50" height="50" relative="1" as="geometry">
            <mxPoint x="27.210000000000036" y="160" as="sourcePoint" />
            <mxPoint x="52.210000000000036" y="135" as="targetPoint" />
          </mxGeometry>
        </mxCell>
        <mxCell id="4K4WvvSBn-Kl9yCaVSDz-100" value="" style="endArrow=none;html=1;rounded=0;exitX=0;exitY=1;exitDx=0;exitDy=0;strokeColor=#000000;strokeWidth=0.7;" edge="1" parent="4K4WvvSBn-Kl9yCaVSDz-97">
          <mxGeometry width="50" height="50" relative="1" as="geometry">
            <mxPoint x="17.610000000000035" y="16" as="sourcePoint" />
            <mxPoint x="23.610000000000035" as="targetPoint" />
          </mxGeometry>
        </mxCell>
        <mxCell id="4K4WvvSBn-Kl9yCaVSDz-101" value="" style="ellipse;whiteSpace=wrap;html=1;aspect=fixed;fillColor=none;strokeColor=#00FF00;" vertex="1" parent="4K4WvvSBn-Kl9yCaVSDz-97">
          <mxGeometry width="16" height="16" as="geometry" />
        </mxCell>
        <mxCell id="4K4WvvSBn-Kl9yCaVSDz-102" value="Modality Dropout&lt;div&gt;by &lt;font style=&quot;&quot; face=&quot;Times New Roman&quot;&gt;&lt;i&gt;p&lt;/i&gt;&lt;/font&gt;&lt;sub&gt;do&lt;/sub&gt;&lt;/div&gt;" style="text;html=1;align=center;verticalAlign=middle;whiteSpace=wrap;rounded=0;fontStyle=1" vertex="1" parent="1">
          <mxGeometry x="1297" y="412" width="110" height="30" as="geometry" />
        </mxCell>
      </root>
    </mxGraphModel>
  </diagram>
</mxfile>
